<svg width="20" height="20" viewBox="0 0 20 20" fill="none" xmlns="http://www.w3.org/2000/svg">
<g clip-path="url(#clip0_5_70)">
<path d="M10 0C7.79063 0.00242633 5.67242 0.881179 4.11014 2.44346C2.54787 4.00573 1.66911 6.12394 1.66669 8.33333C1.66669 12.735 8.66669 18.7775 9.46169 19.4525L10 19.9075L10.5384 19.4525C11.3334 18.7775 18.3334 12.735 18.3334 8.33333C18.3309 6.12394 17.4522 4.00573 15.8899 2.44346C14.3276 0.881179 12.2094 0.00242633 10 0ZM10 12.5C9.17593 12.5 8.37035 12.2556 7.68514 11.7978C6.99994 11.34 6.46589 10.6892 6.15052 9.92785C5.83516 9.16649 5.75264 8.32871 5.91342 7.52046C6.07419 6.7122 6.47102 5.96977 7.05374 5.38706C7.63646 4.80434 8.37889 4.4075 9.18714 4.24673C9.9954 4.08596 10.8332 4.16847 11.5945 4.48384C12.3559 4.7992 13.0066 5.33325 13.4645 6.01846C13.9223 6.70366 14.1667 7.50924 14.1667 8.33333C14.1654 9.438 13.726 10.497 12.9448 11.2782C12.1637 12.0593 11.1047 12.4987 10 12.5Z" fill="#84908A"/>
<path d="M10 10.8335C11.3807 10.8335 12.5 9.71421 12.5 8.3335C12.5 6.95278 11.3807 5.8335 10 5.8335C8.61929 5.8335 7.5 6.95278 7.5 8.3335C7.5 9.71421 8.61929 10.8335 10 10.8335Z" fill="#84908A"/>
</g>
<defs>
<clipPath id="clip0_5_70">
<rect width="20" height="20" fill="white"/>
</clipPath>
</defs>
</svg>
