<svg width="20" height="20" viewBox="0 0 20 20" fill="none" xmlns="http://www.w3.org/2000/svg">
<path d="M8.23166 10.4552C8.7013 10.9229 9.33715 11.1856 10 11.1856C10.6628 11.1856 11.2987 10.9229 11.7683 10.4552L19.8175 2.40516C19.6322 1.94181 19.3124 1.54452 18.8994 1.26442C18.4864 0.984325 17.999 0.834245 17.5 0.833496H2.49999C2.00096 0.834245 1.51357 0.984325 1.10056 1.26442C0.687541 1.54452 0.367803 1.94181 0.182495 2.40516L8.23166 10.4552Z" fill="#84908A"/>
<path d="M12.9467 11.6335C12.1645 12.4137 11.1048 12.8519 10 12.8519C8.89521 12.8519 7.83552 12.4137 7.05333 11.6335L0 4.5835V19.1668H20V4.5835L12.9467 11.6335Z" fill="#84908A"/>
</svg>
