<svg width="24" height="24" viewBox="0 0 24 24" fill="none" xmlns="http://www.w3.org/2000/svg">
<path d="M21 1H3C1.346 1 0 2.346 0 4V23H24V4C24 2.346 22.654 1 21 1ZM6.5 18.5C5.672 18.5 5 17.828 5 17C5 16.172 5.672 15.5 6.5 15.5C7.328 15.5 8 16.172 8 17C8 17.828 7.328 18.5 6.5 18.5ZM6.5 13.5C5.672 13.5 5 12.828 5 12C5 11.172 5.672 10.5 6.5 10.5C7.328 10.5 8 11.172 8 12C8 12.828 7.328 13.5 6.5 13.5ZM6.5 8.5C5.672 8.5 5 7.828 5 7C5 6.172 5.672 5.5 6.5 5.5C7.328 5.5 8 6.172 8 7C8 7.828 7.328 8.5 6.5 8.5ZM19 18H10V16H19V18ZM19 13H10V11H19V13ZM19 8H10V6H19V8Z" fill="white"/>
</svg>
