<svg width="296" height="137" viewBox="0 0 296 137" fill="none" xmlns="http://www.w3.org/2000/svg">
<path opacity="0.1" d="M231.535 197.699H284.279V350H156.814V226.987C156.814 205.509 157.791 184.031 159.744 162.552C161.698 141.074 166.093 120.572 172.93 101.046C180.744 81.5202 191.977 63.4589 206.628 46.8619C221.279 29.2887 241.302 13.6681 266.698 0L296 58.5774C270.605 75.1743 254 95.6764 246.186 120.084C238.372 144.491 233.488 170.363 231.535 197.699ZM55.7209 197.699H109.93V350H-19V226.987C-19 205.509 -18.0233 184.031 -16.0698 162.552C-14.1163 141.074 -9.23256 120.572 -1.4186 101.046C6.39535 81.5202 17.6279 63.4589 32.2791 46.8619C46.9302 29.2887 66.9535 13.6681 92.3488 0L121.651 58.5774C95.2791 75.1743 78.1861 95.6764 70.3721 120.084C62.5581 144.491 57.6744 170.363 55.7209 197.699Z" fill="#009147"/>
</svg>
