<svg width="300" height="323" viewBox="0 0 300 323" fill="none" xmlns="http://www.w3.org/2000/svg">
<path opacity="0.1" d="M197.183 322.22L167.606 262.945C192.019 246.951 207.981 225.311 215.493 198.026C223.005 169.8 227.7 142.045 229.577 114.76H181.69V-27.7803H300V95.0019C300 115.701 299.061 136.87 297.183 158.51C295.305 179.209 291.08 199.437 284.507 219.195C277.934 238.954 267.606 257.771 253.521 275.647C239.437 292.583 220.657 308.107 197.183 322.22ZM26.7606 322.22L0 262.945C24.4131 246.951 39.9061 225.311 46.4789 198.026C53.9906 169.8 58.6854 142.045 60.5634 114.76H12.6761V-27.7803H130.986V95.0019C130.986 115.701 130.047 136.87 128.169 158.51C126.291 179.209 121.596 199.437 114.085 219.195C107.512 238.954 97.1831 257.771 83.0986 275.647C69.9531 292.583 51.1737 308.107 26.7606 322.22Z" fill="#009147"/>
</svg>
